<?xml version="1.0" encoding="utf-8"?>
<!-- Generator: Adobe Illustrator 25.2.1, SVG Export Plug-In . SVG Version: 6.00 Build 0)  -->
<svg version="1.1" id="Layer_1" xmlns="http://www.w3.org/2000/svg" xmlns:xlink="http://www.w3.org/1999/xlink" x="0px" y="0px"
	 viewBox="0 0 329.8 94.6" style="enable-background:new 0 0 329.8 94.6;" xml:space="preserve">
<style type="text/css">
	.st0{fill:#FFFFFF;}
	.st1{fill:none;stroke:#FFFFFF;stroke-width:1.2811;stroke-miterlimit:10;}
</style>
<g>
	<path class="st0" d="M0,23.3h7.3v2.8c1.3-1.4,2.5-2.4,3.6-2.9c1.1-0.5,2.3-0.8,3.8-0.8c1.9,0,4,0.6,6.1,1.9L17.4,31
		c-1.4-1-2.7-1.5-4.1-1.5c-4,0-6,3-6,9v16.4H0V23.3z"/>
	<path class="st0" d="M130.5,0h7.4v54.9h-7.4v-3.3c-2.9,2.8-6.2,4.2-9.8,4.2c-4.3,0-7.9-1.6-10.8-4.8c-2.8-3.2-4.3-7.3-4.3-12.1
		c0-4.7,1.4-8.7,4.3-11.8c2.8-3.2,6.4-4.8,10.6-4.8c3.7,0,7,1.5,10,4.6V0z M113.1,39c0,3,0.8,5.5,2.4,7.4c1.7,1.9,3.8,2.9,6.3,2.9
		c2.7,0,4.9-0.9,6.6-2.8c1.7-1.9,2.5-4.4,2.5-7.3c0-3-0.8-5.4-2.5-7.4c-1.7-1.9-3.8-2.8-6.5-2.8c-2.5,0-4.6,1-6.3,2.9
		C114,33.8,113.1,36.2,113.1,39z"/>
	<path class="st0" d="M166.6,10.1c0-1.3,0.5-2.4,1.4-3.3s2.1-1.4,3.4-1.4c1.3,0,2.4,0.5,3.4,1.4c0.9,0.9,1.4,2,1.4,3.4
		s-0.5,2.4-1.4,3.4c-0.9,0.9-2,1.4-3.4,1.4s-2.4-0.5-3.4-1.4C167,12.6,166.6,11.4,166.6,10.1z M175,23.3v31.7h-7.3V23.3H175z"/>
	<path class="st0" d="M204.8,23.3h7.4v2.9c2.6-2.5,5.4-3.8,8.6-3.8c3.7,0,6.6,1.2,8.6,3.5c1.8,2,2.7,5.2,2.7,9.7v19.4h-7.4V37.2
		c0-3.1-0.4-5.3-1.3-6.5c-0.9-1.2-2.4-1.8-4.6-1.8c-2.4,0-4.1,0.8-5.2,2.4c-1,1.6-1.5,4.4-1.5,8.3v15.3h-7.4L204.8,23.3L204.8,23.3z
		"/>
	<path class="st0" d="M260.8,10.1c0-1.3,0.5-2.4,1.4-3.3s2-1.4,3.4-1.4c1.3,0,2.5,0.5,3.4,1.4c0.9,0.9,1.4,2,1.4,3.4
		s-0.5,2.4-1.4,3.4c-0.9,0.9-2,1.4-3.4,1.4s-2.5-0.5-3.4-1.4C261.2,12.6,260.8,11.4,260.8,10.1z M269.2,23.3v31.7h-7.3V23.3H269.2z"
		/>
	<path class="st0" d="M322.4,23.3h7.4v31.7h-7.4v-3.3c-3,2.8-6.3,4.2-9.7,4.2c-4.4,0-8-1.6-10.9-4.8c-2.8-3.2-4.3-7.3-4.3-12.1
		c0-4.8,1.4-8.7,4.3-11.9c2.8-3.2,6.4-4.8,10.7-4.8c3.7,0,7,1.5,9.9,4.5L322.4,23.3L322.4,23.3z M305,39c0,3,0.8,5.5,2.4,7.4
		c1.7,1.9,3.8,2.9,6.3,2.9c2.7,0,4.9-0.9,6.6-2.8c1.7-1.9,2.5-4.4,2.5-7.3c0-3-0.8-5.4-2.5-7.4c-1.7-1.9-3.8-2.8-6.5-2.8
		c-2.5,0-4.6,1-6.3,2.9C305.9,33.8,305,36.2,305,39z"/>
</g>
<g>
	<path class="st0" d="M113.2,90.5c0,0.1-0.2,0.1-0.5,0.2h-0.8c-0.1,0-0.2,0.1-0.2,0.2c0,0.1-0.1,0.4-0.1,0.9v1
		c-1.1,0.9-2.4,1.4-3.9,1.4c-1.9,0-3.4-0.5-4.5-1.6s-1.7-2.5-1.7-4.3c0-1.8,0.5-3.3,1.6-4.5s2.5-1.7,4.3-1.7c0.9,0,1.9,0.3,3,0.9
		c0.1,0.1,0.2,0.1,0.2,0.1c0.1,0,0.2-0.1,0.3-0.3c0.1-0.3,0.2-0.5,0.4-0.5s0.2,0.1,0.2,0.2c0,0,0,0.1-0.1,0.4
		c-0.1,0.5-0.1,1.5-0.1,2.9c0,0.4-0.1,0.6-0.3,0.6c-0.2,0-0.2-0.1-0.2-0.3c0-1.1-0.3-2-0.9-2.7c-0.6-0.7-1.3-1-2.3-1
		c-1.1,0-2,0.5-2.7,1.5s-1,2.4-1,4.2c0,1.7,0.3,3.1,1,4c0.7,1,1.6,1.5,2.7,1.5c1,0,1.7-0.3,1.9-1c0.1-0.2,0.1-0.6,0.1-1.1
		c0-0.6,0-0.9-0.1-1s-0.4-0.1-1-0.1h-0.2c-0.1,0-0.2,0-0.2,0c-0.1,0-0.2-0.1-0.2-0.2c0-0.1,0.2-0.2,0.6-0.2h0.7c0.2,0,0.3,0,0.6,0
		c0.2,0,0.4,0,0.4,0c1.2,0,1.9,0,2.1,0h0.5C113,90.3,113.2,90.4,113.2,90.5z"/>
	<path class="st0" d="M127.9,91.3c0,0,0,0.1,0,0.3c0,0.2,0,0.4,0,0.5v1.5c0,0.2,0,0.3,0.1,0.5l-4.3-0.1l-4.9,0.1
		c-0.4,0-0.5-0.1-0.5-0.2c0-0.2,0.1-0.2,0.3-0.2c0.6,0,0.9,0,1-0.1s0.1-0.3,0.1-0.8V84c0-0.7-0.1-1.1-0.2-1.1s-0.4-0.1-0.9-0.1
		c-0.2,0-0.3-0.1-0.3-0.2c0-0.1,0.1-0.2,0.3-0.2h0.6c0.2,0,0.3,0,0.5,0h0.3h0.6c0.1,0,0.5,0,1.3,0c0.8,0,1.7,0,2.8,0h1.5
		c0.4,0,0.8,0,1.1,0v0.2l0,0.4c0,0.2,0.1,1,0.2,2.3c0,0.1,0,0.2,0,0.3c0,0.2-0.1,0.3-0.2,0.3c-0.2,0-0.3-0.2-0.3-0.5
		c-0.2-1.3-0.7-2.1-1.3-2.3c-0.4-0.1-1.3-0.2-2.7-0.2h-1.3v4.8h0.6c1.1,0,1.8-0.1,2-0.3c0.2-0.2,0.4-0.7,0.5-1.5
		c0.1-0.5,0.2-0.7,0.3-0.7c0.2,0,0.3,0.2,0.3,0.5c0,0.2,0,0.5,0,0.9s0,0.8,0,1c0,1.1,0,1.9,0.1,2.3c0,0.1,0,0.2,0,0.3
		c0,0.3-0.1,0.4-0.2,0.4c-0.2,0-0.2-0.2-0.3-0.6c-0.1-0.9-0.3-1.5-0.5-1.7c-0.2-0.2-0.9-0.3-2-0.3h-0.6v5.5c2.5,0,4-0.1,4.4-0.2
		c0.7-0.2,1.1-1,1.2-2.5c0-0.3,0.1-0.4,0.3-0.4S127.9,90.8,127.9,91.3z"/>
	<path class="st0" d="M144.9,82.6c0,0.1-0.2,0.2-0.6,0.2c-0.1,0-0.2,0-0.4,0h-0.3c-0.1,0-0.2,0-0.3,0.1s0,0.3,0,0.7V93
		c0,0.6,0,1,0,1.1s-0.1,0.2-0.2,0.2c-0.2,0-0.8-0.7-1.8-2.2c-0.1-0.2-0.3-0.4-0.6-0.8c0-0.1-0.1-0.2-0.3-0.4
		c-0.9-1.1-2.4-3.3-4.6-6.4v8.1c0,0.6,0.1,1,0.3,1s0.5,0.1,1,0.1h0.1c0.2,0,0.3,0.1,0.3,0.2c0,0.1-0.2,0.2-0.6,0.2
		c-0.1,0-0.4,0-0.9-0.1c-0.3,0-0.5,0-0.7,0c-0.2,0-0.3,0-0.5,0c-0.3,0-0.7,0.1-1.1,0.1c-0.3,0-0.4-0.1-0.4-0.2
		c0-0.1,0.2-0.2,0.5-0.2h0.2l0.3,0c0.4,0,0.6-0.1,0.6-0.2c0-0.1,0-0.3,0-0.8v-7.1c0-1.3-0.1-2.1-0.2-2.3c-0.2-0.3-0.6-0.5-1.2-0.5
		c-0.4,0-0.6-0.1-0.6-0.2c0-0.1,0.1-0.2,0.3-0.2h0.1h1.4c0.1,0,0.2,0,0.3,0c0.2,0,0.3,0,0.5,0h0.9l6.1,8.3v-7.1c0-0.4,0-0.7-0.1-0.7
		c0-0.1-0.2-0.1-0.4-0.1c-0.2,0-0.4,0-0.5,0h-0.1c-0.3,0-0.5-0.1-0.5-0.2c0-0.1,0.1-0.1,0.2-0.1s0.7,0,1.7,0c0.9,0,1.5,0,1.6,0
		C144.8,82.4,144.9,82.5,144.9,82.6z"/>
	<path class="st0" d="M160.3,91.3c0,0,0,0.1,0,0.3c0,0.2,0,0.4,0,0.5v1.5c0,0.2,0,0.3,0.1,0.5l-4.3-0.1l-4.9,0.1
		c-0.4,0-0.5-0.1-0.5-0.2c0-0.2,0.1-0.2,0.3-0.2c0.6,0,0.9,0,1-0.1s0.1-0.3,0.1-0.8V84c0-0.7-0.1-1.1-0.2-1.1s-0.4-0.1-0.9-0.1
		c-0.2,0-0.3-0.1-0.3-0.2c0-0.1,0.1-0.2,0.3-0.2h0.6c0.2,0,0.3,0,0.5,0h0.3h0.6c0.1,0,0.5,0,1.3,0c0.8,0,1.7,0,2.8,0h1.5
		c0.4,0,0.8,0,1.1,0v0.2l0,0.4c0,0.2,0.1,1,0.2,2.3c0,0.1,0,0.2,0,0.3c0,0.2-0.1,0.3-0.2,0.3c-0.1,0-0.3-0.2-0.3-0.5
		c-0.2-1.3-0.7-2.1-1.4-2.3c-0.4-0.1-1.3-0.2-2.6-0.2h-1.3v4.8h0.6c1.1,0,1.8-0.1,2-0.3c0.2-0.2,0.4-0.7,0.5-1.5
		c0.1-0.5,0.1-0.7,0.3-0.7c0.2,0,0.3,0.2,0.3,0.5c0,0.2,0,0.5,0,0.9s0,0.8,0,1c0,1.1,0,1.9,0.1,2.3c0,0.1,0,0.2,0,0.3
		c0,0.3-0.1,0.4-0.2,0.4c-0.1,0-0.2-0.2-0.3-0.6c-0.1-0.9-0.3-1.5-0.5-1.7c-0.2-0.2-0.9-0.3-2-0.3h-0.6v5.5c2.5,0,4-0.1,4.4-0.2
		c0.7-0.2,1.1-1,1.2-2.5c0-0.3,0.1-0.4,0.3-0.4S160.3,90.8,160.3,91.3z"/>
	<path class="st0" d="M176.8,93.4c0,0.6-0.5,0.8-1.4,0.8c-0.9,0-1.7-0.3-2.2-1.1c-0.2-0.3-0.4-0.6-0.5-0.9s-0.2-1-0.3-2.2
		c-0.1-0.7-0.3-1.2-0.7-1.5c-0.4-0.3-1-0.4-2-0.5v5.3c-0.1,0.2,0.4,0.4,1.3,0.4c0.2,0,0.3,0.1,0.3,0.2s-0.1,0.2-0.4,0.2
		c-0.2,0-0.4,0-0.5,0h-0.9c-0.4,0-0.8,0-1.4,0c-0.5,0-0.8,0-0.9,0h-0.5c-0.5,0-0.7-0.1-0.7-0.2c0-0.1,0.1-0.2,0.3-0.2
		c0.1,0,0.1,0,0.3,0h0.1c0.6,0,0.9-0.1,0.9-0.4V83.2c0-0.2-0.1-0.3-0.1-0.4s-0.3-0.1-0.7-0.1s-0.6-0.1-0.6-0.2
		c0-0.1,0.1-0.2,0.4-0.2h0.2c0.3,0,1.1,0,2.4,0c0.6,0,1,0,1.4,0s0.6,0,0.9,0c1.1,0,2.1,0.2,2.8,0.7c0.7,0.5,1,1.1,1,1.8
		c0,0.8-0.4,1.5-1.1,2c-0.7,0.5-1.8,0.8-3.1,0.9c1.4,0.2,2.4,0.5,3,1.1c0.5,0.6,0.9,1.7,1,3.2c0.1,1.1,0.4,1.6,0.9,1.6
		c0.1,0,0.1,0,0.1-0.1c0,0,0-0.1-0.1-0.2c0-0.1-0.1-0.2-0.1-0.2c0-0.3,0.2-0.5,0.5-0.5C176.6,92.9,176.8,93.1,176.8,93.4z
		 M172.7,85.1c0-1.5-0.8-2.3-2.3-2.3c-0.4,0-0.6,0-0.7,0.1c-0.1,0.1-0.1,0.3-0.1,0.6v4.2C171.7,87.7,172.7,86.8,172.7,85.1z"/>
	<path class="st0" d="M193.4,93.9c0,0.1-0.2,0.2-0.5,0.2h-0.2h-1.6h-0.7c-0.3,0-0.7,0-1.2,0h-0.8H188h-0.1c-0.3,0-0.5-0.1-0.5-0.2
		s0.3-0.2,0.9-0.2c0.7,0,1.1-0.1,1.1-0.2c0,0-0.1-0.2-0.1-0.5c0-0.1-0.2-0.7-0.6-1.7l-0.3-0.9h-3.7c-0.7,1.8-1.1,2.8-1.1,3.1
		c0,0.2,0.1,0.2,0.3,0.3l0.3,0h0.4l0.2,0.1c0.2,0,0.3,0.1,0.3,0.2c0,0.1-0.2,0.2-0.5,0.2c-0.1,0-0.4,0-0.9,0s-1.1,0-1.5,0H182
		l-0.2,0l-0.3,0h-0.1c-0.3,0-0.4-0.1-0.4-0.2c0-0.1,0.1-0.2,0.3-0.2c0.3,0,0.5,0,0.6-0.1c0.3-0.1,0.5-0.1,0.6-0.2
		c0.1-0.1,0.5-1,1.3-2.9c0.3-0.8,0.6-1.5,0.9-2.2c0.1-0.2,0.2-0.4,0.2-0.5c0-0.1,0.1-0.3,0.2-0.5c0.3-0.7,0.7-1.8,1.2-3.2l0.4-1.1
		l0.2-0.5c0.1-0.3,0.2-0.4,0.3-0.4c0.1,0,0.2,0.2,0.3,0.7c0.5,1.2,1.8,4.5,4,9.9c0.2,0.5,0.4,0.8,0.6,0.8c0.1,0,0.3,0,0.8,0.1
		C193.2,93.7,193.4,93.8,193.4,93.9z M188.2,89.9l-1.6-4.4c-0.4,1-1,2.5-1.7,4.4H188.2z"/>
	<path class="st0" d="M207.9,85.5c0,0.2-0.1,0.3-0.3,0.3c-0.2,0-0.3-0.2-0.4-0.5c-0.1-0.7-0.2-1.2-0.4-1.7c-0.3-0.6-1.1-0.9-2.2-0.9
		c-0.2,0-0.4,0-0.8,0v10.3c0,0.3,0.2,0.5,0.7,0.5c0.5,0,0.7,0.1,0.7,0.2s-0.1,0.2-0.4,0.2h-0.2c-0.1,0-0.4,0-0.7,0s-0.6,0-0.7,0
		c0,0-0.2,0-0.6,0s-0.8,0-1.4,0h-0.6c-0.3,0-0.5-0.1-0.5-0.2s0.3-0.2,0.9-0.2c0.2,0,0.3,0,0.4-0.1c0.1,0,0.2-0.1,0.2-0.3
		c0-0.2,0-0.6,0-1.3v-9.2c-1.3,0-2.2,0.1-2.6,0.4c-0.4,0.3-0.7,1-0.8,2c-0.1,0.4-0.2,0.6-0.3,0.6c-0.1,0-0.2-0.2-0.2-0.6
		c0-0.5,0.1-1.4,0.2-2.9h6c0.5,0,1.6,0,3.2,0c0.1,0,0.3,0,0.5-0.1l0,0.5l0.1,0.9l0.1,1.1l0.1,0.4C207.9,85.4,207.9,85.5,207.9,85.5z
		"/>
	<path class="st0" d="M218.6,93.9c0,0.1-0.1,0.2-0.2,0.2h-0.3h-0.5h-0.7c-0.1,0-0.3,0-0.4,0c-0.1,0-0.2,0-0.3,0c-0.2,0-0.5,0-1,0
		s-0.8,0-1.1,0H214c-0.3,0-0.4,0-0.4-0.1c0-0.1,0.2-0.2,0.6-0.2c0.5,0,0.8-0.1,0.8-0.2s0-0.5,0-1.1v-8.3c0-0.7,0-1.1-0.1-1.2
		s-0.2-0.2-0.4-0.2h-0.5h-0.3c-0.1,0-0.2-0.1-0.2-0.2s0.1-0.2,0.3-0.2c0,0,0,0,0.1,0s0.3,0,0.6,0h1.8c0.1,0,0.3,0,0.5,0s0.4,0,0.6,0
		h0.6c0.3,0,0.4,0.1,0.4,0.2c0,0.1-0.3,0.2-0.9,0.2c-0.2,0-0.4,0-0.4,0.1c-0.1,0.1-0.1,0.3-0.1,0.7v9.7c0,0.2,0.1,0.3,0.2,0.3
		s0.4,0.1,0.9,0.1C218.5,93.7,218.6,93.8,218.6,93.9z"/>
	<path class="st0" d="M236.1,88.3c0,1.7-0.5,3.1-1.6,4.2c-1.1,1.2-2.4,1.7-3.9,1.7c-1.7,0-3.1-0.6-4.2-1.8s-1.7-2.6-1.7-4.3
		c0-1.8,0.5-3.2,1.6-4.3c1.1-1.1,2.5-1.7,4.2-1.7c1.6,0,2.9,0.6,4,1.8S236.1,86.6,236.1,88.3z M233.7,88.4c0-2-0.4-3.5-1.2-4.7
		c-0.5-0.7-1.2-1.1-2.1-1.1c-1.2,0-2.1,0.7-2.7,2c-0.4,0.9-0.6,2.2-0.6,3.6c0,1.8,0.3,3.1,0.9,4.1c0.6,1,1.5,1.5,2.6,1.5
		C232.7,93.9,233.7,92.1,233.7,88.4z"/>
	<path class="st0" d="M253.4,82.6c0,0.1-0.2,0.2-0.6,0.2c-0.1,0-0.2,0-0.4,0h-0.3c-0.1,0-0.2,0-0.3,0.1s0,0.3,0,0.7V93
		c0,0.6,0,1,0,1.1s-0.1,0.2-0.2,0.2c-0.2,0-0.8-0.7-1.8-2.2c-0.1-0.2-0.3-0.4-0.6-0.8c0-0.1-0.1-0.2-0.3-0.4
		c-0.9-1.1-2.4-3.3-4.6-6.4v8.1c0,0.6,0.1,1,0.3,1s0.5,0.1,1,0.1h0.1c0.2,0,0.3,0.1,0.3,0.2c0,0.1-0.2,0.2-0.6,0.2
		c-0.1,0-0.4,0-0.9-0.1c-0.3,0-0.5,0-0.7,0c-0.2,0-0.3,0-0.5,0c-0.3,0-0.7,0.1-1.1,0.1c-0.3,0-0.4-0.1-0.4-0.2
		c0-0.1,0.2-0.2,0.5-0.2h0.2l0.3,0c0.4,0,0.6-0.1,0.6-0.2c0-0.1,0-0.3,0-0.8v-7.1c0-1.3-0.1-2.1-0.2-2.3c-0.2-0.3-0.6-0.5-1.2-0.5
		c-0.4,0-0.6-0.1-0.6-0.2c0-0.1,0.1-0.2,0.3-0.2h0.1h1.4c0.1,0,0.2,0,0.3,0c0.2,0,0.3,0,0.5,0h0.9l6.1,8.3v-7.1c0-0.4,0-0.7-0.1-0.7
		c0-0.1-0.2-0.1-0.4-0.1c-0.2,0-0.4,0-0.5,0h-0.1c-0.3,0-0.5-0.1-0.5-0.2c0-0.1,0.1-0.1,0.2-0.1s0.7,0,1.7,0c0.9,0,1.5,0,1.6,0
		C253.4,82.4,253.4,82.5,253.4,82.6z"/>
</g>
<path class="st0" d="M54.9,54V32l19,16.6C65.9,58.9,54.9,54,54.9,54z"/>
<path class="st1" d="M76.5,40.1c0,8.5-6.8,15.3-15.2,15.3s-15.2-6.9-15.2-15.3c0-8.5,6.8-15.3,15.2-15.3
	C69.7,24.8,76.5,31.6,76.5,40.1z"/>
<polyline class="st1" points="54.9,54 54.9,32 111.2,84.1 "/>
</svg>
