<?xml version="1.0" encoding="utf-8"?>
<!-- Generator: Adobe Illustrator 25.2.1, SVG Export Plug-In . SVG Version: 6.00 Build 0)  -->
<svg version="1.1" id="Layer_1" xmlns="http://www.w3.org/2000/svg" xmlns:xlink="http://www.w3.org/1999/xlink" x="0px" y="0px"
	 viewBox="0 0 329.75 94.59" style="enable-background:new 0 0 329.75 94.59;" xml:space="preserve">
<style type="text/css">
	.st0{fill:none;stroke:#000000;stroke-width:1.2811;stroke-miterlimit:10;}
</style>
<g>
	<path d="M0,23.26h7.32v2.83c1.34-1.41,2.54-2.37,3.58-2.9c1.06-0.54,2.32-0.81,3.77-0.81c1.93,0,3.95,0.63,6.05,1.89l-3.35,6.7
		c-1.39-1-2.74-1.5-4.07-1.5c-3.99,0-5.99,3.01-5.99,9.04v16.43H0V23.26z"/>
	<path d="M130.51,0h7.35v54.94h-7.35v-3.32c-2.88,2.82-6.15,4.23-9.79,4.23c-4.34,0-7.94-1.58-10.8-4.75
		c-2.84-3.23-4.26-7.26-4.26-12.1c0-4.73,1.42-8.67,4.26-11.84c2.82-3.19,6.36-4.78,10.64-4.78c3.71,0,7.03,1.52,9.95,4.55V0z
		 M113.14,39c0,3.04,0.81,5.51,2.44,7.42c1.67,1.93,3.77,2.9,6.31,2.9c2.71,0,4.9-0.93,6.57-2.8c1.67-1.93,2.5-4.38,2.5-7.35
		c0-2.97-0.83-5.42-2.5-7.35c-1.67-1.89-3.84-2.83-6.51-2.83c-2.52,0-4.62,0.95-6.31,2.86C113.97,33.77,113.14,36.16,113.14,39z"/>
	<path d="M166.55,10.08c0-1.28,0.47-2.39,1.4-3.32s2.05-1.4,3.35-1.4c1.32,0,2.45,0.47,3.38,1.4c0.93,0.91,1.4,2.03,1.4,3.35
		s-0.47,2.45-1.4,3.38c-0.91,0.93-2.03,1.4-3.35,1.4s-2.45-0.47-3.38-1.4C167.02,12.57,166.55,11.43,166.55,10.08z M174.97,23.26
		v31.68h-7.32V23.26H174.97z"/>
	<path d="M204.8,23.26h7.35v2.93c2.56-2.54,5.44-3.81,8.65-3.81c3.69,0,6.56,1.16,8.62,3.48c1.78,1.97,2.67,5.19,2.67,9.66v19.42
		h-7.35v-17.7c0-3.12-0.43-5.28-1.3-6.47c-0.85-1.21-2.39-1.82-4.62-1.82c-2.43,0-4.15,0.8-5.17,2.41c-1,1.58-1.5,4.35-1.5,8.29
		v15.29h-7.35L204.8,23.26L204.8,23.26z"/>
	<path d="M260.79,10.08c0-1.28,0.47-2.39,1.4-3.32s2.05-1.4,3.35-1.4c1.32,0,2.45,0.47,3.38,1.4c0.93,0.91,1.4,2.03,1.4,3.35
		s-0.47,2.45-1.4,3.38c-0.91,0.93-2.03,1.4-3.35,1.4s-2.45-0.47-3.38-1.4C261.25,12.57,260.79,11.43,260.79,10.08z M269.21,23.26
		v31.68h-7.32V23.26H269.21z"/>
	<path d="M322.4,23.26h7.35v31.68h-7.35v-3.32c-3.01,2.82-6.26,4.23-9.73,4.23c-4.38,0-8-1.58-10.87-4.75
		c-2.84-3.23-4.26-7.26-4.26-12.1c0-4.75,1.42-8.71,4.26-11.87c2.84-3.17,6.4-4.75,10.67-4.75c3.69,0,6.99,1.52,9.92,4.55
		L322.4,23.26L322.4,23.26z M305.03,39c0,3.04,0.81,5.51,2.44,7.42c1.67,1.93,3.77,2.9,6.31,2.9c2.71,0,4.9-0.93,6.57-2.8
		c1.67-1.93,2.5-4.38,2.5-7.35c0-2.97-0.83-5.42-2.5-7.35c-1.67-1.89-3.84-2.83-6.51-2.83c-2.52,0-4.62,0.95-6.31,2.86
		C305.86,33.77,305.03,36.16,305.03,39z"/>
</g>
<g>
	<path d="M113.19,90.52c0,0.09-0.15,0.14-0.46,0.15h-0.82c-0.08,0.02-0.15,0.09-0.19,0.23c-0.04,0.14-0.06,0.44-0.06,0.92v1.03
		c-1.13,0.92-2.43,1.38-3.89,1.38c-1.88,0-3.37-0.53-4.48-1.6s-1.67-2.49-1.67-4.26c0-1.84,0.54-3.33,1.63-4.46s2.51-1.7,4.29-1.7
		c0.92,0,1.91,0.29,2.97,0.87c0.09,0.05,0.16,0.08,0.23,0.08c0.14,0,0.23-0.11,0.28-0.33c0.1-0.31,0.22-0.46,0.36-0.46
		s0.21,0.07,0.21,0.21c0-0.03-0.02,0.11-0.05,0.44c-0.05,0.5-0.08,1.48-0.08,2.95c0,0.39-0.1,0.59-0.31,0.59
		c-0.15,0-0.23-0.1-0.23-0.31c-0.03-1.11-0.35-1.99-0.94-2.65c-0.59-0.66-1.35-0.99-2.29-0.99c-1.14,0-2.04,0.51-2.69,1.53
		s-0.97,2.42-0.97,4.19c0,1.7,0.33,3.05,0.99,4.04c0.66,0.99,1.55,1.48,2.68,1.48c1.03,0,1.66-0.32,1.9-0.97
		c0.08-0.22,0.13-0.58,0.13-1.07c0-0.61-0.04-0.95-0.12-1.03s-0.4-0.11-0.96-0.11h-0.18c-0.08,0-0.16,0-0.23,0
		c-0.14,0-0.21-0.06-0.21-0.17c0-0.14,0.21-0.22,0.62-0.22h0.67c0.15,0,0.34,0,0.56,0c0.24,0,0.37,0,0.38,0c1.2,0,1.88,0,2.05,0
		h0.46C113.04,90.29,113.19,90.37,113.19,90.52z"/>
	<path d="M127.89,91.3c0,0.02-0.01,0.13-0.04,0.33c-0.03,0.2-0.04,0.38-0.04,0.53v1.49c0,0.16,0.03,0.33,0.08,0.51l-4.28-0.08
		l-4.89,0.08c-0.36,0-0.54-0.07-0.54-0.2c0-0.16,0.1-0.23,0.31-0.23c0.55,0,0.87-0.04,0.96-0.12s0.14-0.35,0.14-0.83v-8.81
		c0-0.7-0.06-1.07-0.18-1.11s-0.42-0.06-0.9-0.06c-0.21,0-0.31-0.06-0.31-0.18c0-0.14,0.11-0.21,0.33-0.21h0.61
		c0.17,0,0.34,0,0.51,0h0.28h0.64c0.08,0,0.51,0,1.28,0c0.79,0,1.72,0,2.82,0h1.51c0.44,0,0.81,0,1.1,0v0.18l0.03,0.38
		c0.03,0.25,0.1,1.01,0.21,2.27c0.02,0.08,0.03,0.19,0.03,0.3c0,0.22-0.06,0.33-0.18,0.33c-0.15,0-0.26-0.17-0.33-0.51
		c-0.24-1.3-0.69-2.06-1.35-2.28c-0.37-0.12-1.26-0.18-2.65-0.18h-1.3v4.79h0.61c1.08,0,1.75-0.09,2.01-0.27
		c0.25-0.18,0.42-0.67,0.51-1.47c0.05-0.48,0.15-0.72,0.31-0.72c0.17,0,0.26,0.17,0.26,0.51c0,0.2-0.01,0.52-0.04,0.95
		s-0.04,0.75-0.04,0.97c0,1.11,0.02,1.87,0.06,2.28c0.01,0.14,0.02,0.25,0.02,0.33c0,0.27-0.08,0.41-0.25,0.41
		c-0.15,0-0.25-0.21-0.3-0.64c-0.1-0.92-0.27-1.47-0.5-1.65c-0.24-0.18-0.9-0.27-2-0.27h-0.63v5.53c2.5-0.02,3.97-0.08,4.41-0.21
		c0.68-0.19,1.08-1.01,1.2-2.46c0.02-0.26,0.11-0.38,0.28-0.38S127.89,90.83,127.89,91.3z"/>
	<path d="M144.86,82.58c0,0.12-0.19,0.18-0.56,0.18c-0.05,0-0.17,0-0.36,0h-0.28c-0.15,0-0.24,0.03-0.27,0.1s-0.04,0.3-0.04,0.7V93
		c0,0.62-0.01,0.98-0.03,1.08s-0.09,0.15-0.23,0.15c-0.19,0-0.8-0.72-1.82-2.15c-0.12-0.19-0.3-0.45-0.56-0.77
		c-0.03-0.05-0.13-0.18-0.28-0.39c-0.85-1.13-2.4-3.26-4.64-6.39v8.13c0,0.64,0.09,0.97,0.27,1.01s0.51,0.05,0.99,0.05h0.1
		c0.21,0,0.31,0.06,0.31,0.17c0,0.13-0.19,0.19-0.56,0.19c-0.07,0-0.35-0.02-0.85-0.05c-0.26-0.02-0.49-0.03-0.69-0.03
		c-0.17,0-0.34,0.01-0.51,0.03c-0.33,0.03-0.68,0.05-1.05,0.05c-0.27,0-0.41-0.06-0.41-0.19c0-0.11,0.16-0.17,0.49-0.17h0.23
		l0.33-0.03c0.41-0.04,0.62-0.11,0.64-0.23c0.02-0.07,0.03-0.32,0.03-0.75v-7.1c0-1.29-0.08-2.06-0.23-2.32
		c-0.21-0.34-0.61-0.52-1.2-0.52c-0.43,0-0.64-0.07-0.64-0.22c0-0.11,0.11-0.17,0.33-0.17h0.1h1.41c0.07,0,0.18,0,0.33,0
		c0.17,0,0.32,0,0.46,0h0.95l6.05,8.33V83.6c0-0.43-0.02-0.67-0.05-0.74c-0.04-0.07-0.17-0.1-0.41-0.1c-0.22,0-0.4,0-0.54,0h-0.15
		c-0.32,0-0.49-0.06-0.49-0.19c0-0.08,0.08-0.13,0.24-0.14s0.74-0.02,1.73-0.02c0.94,0,1.49,0.01,1.64,0.02
		C144.78,82.44,144.86,82.49,144.86,82.58z"/>
	<path d="M160.28,91.3c0,0.02-0.01,0.13-0.04,0.33c-0.03,0.2-0.04,0.38-0.04,0.53v1.49c0,0.16,0.03,0.33,0.08,0.51L156,94.08
		l-4.89,0.08c-0.36,0-0.54-0.07-0.54-0.2c0-0.16,0.1-0.23,0.31-0.23c0.55,0,0.87-0.04,0.96-0.12s0.14-0.35,0.14-0.83v-8.81
		c0-0.7-0.06-1.07-0.18-1.11s-0.42-0.06-0.9-0.06c-0.21,0-0.31-0.06-0.31-0.18c0-0.14,0.11-0.21,0.33-0.21h0.61
		c0.17,0,0.34,0,0.51,0h0.28h0.64c0.08,0,0.51,0,1.28,0c0.79,0,1.72,0,2.82,0h1.51c0.44,0,0.81,0,1.1,0v0.18l0.03,0.38
		c0.03,0.25,0.1,1.01,0.21,2.27c0.02,0.08,0.03,0.19,0.03,0.3c0,0.22-0.06,0.33-0.18,0.33c-0.15,0-0.26-0.17-0.33-0.51
		c-0.24-1.3-0.69-2.06-1.35-2.28c-0.37-0.12-1.26-0.18-2.65-0.18h-1.3v4.79h0.61c1.08,0,1.75-0.09,2.01-0.27
		c0.25-0.18,0.42-0.67,0.51-1.47c0.05-0.48,0.15-0.72,0.31-0.72c0.17,0,0.26,0.17,0.26,0.51c0,0.2-0.01,0.52-0.04,0.95
		s-0.04,0.75-0.04,0.97c0,1.11,0.02,1.87,0.06,2.28c0.01,0.14,0.02,0.25,0.02,0.33c0,0.27-0.08,0.41-0.25,0.41
		c-0.15,0-0.25-0.21-0.3-0.64c-0.1-0.92-0.27-1.47-0.5-1.65c-0.24-0.18-0.9-0.27-2-0.27h-0.63v5.53c2.5-0.02,3.97-0.08,4.41-0.21
		c0.68-0.19,1.08-1.01,1.2-2.46c0.02-0.26,0.11-0.38,0.28-0.38S160.28,90.83,160.28,91.3z"/>
	<path d="M176.75,93.42c0,0.55-0.48,0.82-1.43,0.82c-0.92,0-1.67-0.35-2.25-1.05c-0.25-0.31-0.43-0.61-0.51-0.92
		s-0.19-1.03-0.31-2.17c-0.09-0.73-0.32-1.24-0.7-1.53c-0.38-0.29-1.04-0.45-1.98-0.48v5.28c-0.05,0.24,0.38,0.36,1.29,0.36
		c0.18,0,0.28,0.06,0.28,0.18s-0.12,0.18-0.36,0.18c-0.19,0-0.37,0-0.54,0h-0.9c-0.38,0-0.83,0-1.36,0c-0.51,0-0.79,0-0.85,0h-0.49
		c-0.48,0-0.72-0.06-0.72-0.17c0-0.13,0.08-0.19,0.26-0.19c0.05,0,0.14,0,0.26,0h0.1c0.58,0,0.87-0.12,0.87-0.36V83.25
		c0-0.19-0.05-0.31-0.14-0.37s-0.34-0.09-0.74-0.09s-0.6-0.07-0.6-0.21c0-0.12,0.12-0.18,0.36-0.18h0.18c0.27,0,1.08,0,2.43,0
		c0.56,0,1.03,0,1.38,0s0.64,0,0.85,0c1.14,0,2.06,0.23,2.75,0.7c0.69,0.47,1.04,1.08,1.04,1.85c0,0.83-0.37,1.51-1.1,2.03
		c-0.73,0.52-1.77,0.82-3.1,0.91c1.43,0.15,2.42,0.53,2.96,1.12c0.54,0.6,0.88,1.67,1.04,3.21c0.1,1.05,0.42,1.58,0.95,1.58
		c0.08,0,0.13-0.03,0.13-0.08c0-0.02-0.02-0.07-0.06-0.16c-0.04-0.09-0.06-0.16-0.06-0.21c0-0.32,0.17-0.47,0.51-0.47
		C176.57,92.88,176.75,93.06,176.75,93.42z M172.71,85.13c0-1.53-0.75-2.29-2.26-2.29c-0.39,0-0.63,0.04-0.72,0.11
		c-0.09,0.08-0.14,0.26-0.14,0.55v4.18C171.66,87.68,172.71,86.83,172.71,85.13z"/>
	<path d="M193.38,93.93c0,0.1-0.17,0.15-0.51,0.15h-0.18h-1.59h-0.72c-0.29,0-0.69,0-1.2,0h-0.77h-0.46h-0.13
		c-0.31,0-0.46-0.07-0.46-0.2s0.31-0.21,0.92-0.23c0.73-0.02,1.1-0.1,1.1-0.25c0-0.03-0.05-0.2-0.15-0.48
		c-0.04-0.14-0.23-0.7-0.59-1.71l-0.31-0.86h-3.66c-0.7,1.76-1.05,2.78-1.05,3.05c0,0.15,0.1,0.24,0.31,0.26l0.33,0.03h0.38
		l0.23,0.08c0.21,0,0.31,0.05,0.31,0.16c0,0.12-0.18,0.18-0.54,0.18c-0.05,0-0.35-0.01-0.91-0.04s-1.05-0.04-1.47-0.04h-0.23
		l-0.23,0.04l-0.28,0.04h-0.05c-0.27,0-0.41-0.05-0.41-0.15c0-0.12,0.11-0.19,0.33-0.21c0.31-0.02,0.51-0.03,0.62-0.05
		c0.29-0.05,0.48-0.13,0.56-0.23c0.1-0.05,0.52-1.03,1.26-2.93c0.29-0.77,0.57-1.49,0.85-2.16c0.1-0.24,0.17-0.42,0.21-0.54
		c0.03-0.12,0.1-0.3,0.21-0.54c0.29-0.7,0.7-1.76,1.23-3.19l0.39-1.08l0.18-0.46c0.1-0.26,0.21-0.38,0.31-0.38
		c0.05,0,0.16,0.24,0.33,0.72c0.51,1.25,1.84,4.54,3.97,9.89c0.21,0.53,0.4,0.81,0.59,0.85c0.05,0.02,0.32,0.04,0.82,0.08
		C193.22,93.72,193.38,93.79,193.38,93.93z M188.18,89.91l-1.65-4.38c-0.42,1.02-0.99,2.48-1.71,4.38H188.18z"/>
	<path d="M207.94,85.51c0,0.23-0.1,0.35-0.31,0.35c-0.22,0-0.34-0.16-0.36-0.47c-0.05-0.68-0.2-1.23-0.44-1.66
		c-0.33-0.59-1.07-0.89-2.23-0.89c-0.17,0-0.44,0.01-0.79,0.03v10.3c0,0.32,0.25,0.5,0.74,0.51c0.5,0.02,0.74,0.09,0.74,0.21
		s-0.14,0.18-0.44,0.18h-0.18c-0.15,0-0.39,0-0.72,0s-0.56,0-0.69,0c-0.04,0-0.23,0-0.59,0s-0.82,0-1.38,0h-0.61
		c-0.34,0-0.51-0.06-0.51-0.18s0.28-0.19,0.85-0.21c0.21,0,0.34-0.02,0.41-0.05c0.14-0.03,0.21-0.12,0.23-0.27
		c0.02-0.15,0.03-0.58,0.03-1.3v-9.22c-1.33-0.02-2.2,0.12-2.6,0.41c-0.4,0.29-0.67,0.97-0.81,2.03c-0.05,0.39-0.16,0.58-0.33,0.58
		c-0.15,0-0.23-0.19-0.23-0.58c0-0.49,0.08-1.45,0.23-2.88h5.97c0.53,0,1.61-0.01,3.23-0.04c0.14,0,0.32-0.03,0.54-0.09l0.03,0.53
		l0.08,0.9l0.08,1.05l0.05,0.45C207.93,85.36,207.94,85.46,207.94,85.51z"/>
	<path d="M218.57,93.91c0,0.1-0.08,0.15-0.23,0.15h-0.26h-0.54h-0.67c-0.14,0-0.28,0-0.44,0c-0.14,0-0.23,0-0.28,0
		c-0.17,0-0.49,0-0.96,0s-0.82,0-1.06,0h-0.1c-0.29,0-0.44-0.04-0.44-0.13c0-0.12,0.19-0.18,0.56-0.2c0.51-0.03,0.78-0.09,0.81-0.18
		s0.04-0.46,0.04-1.11v-8.31c0-0.67-0.02-1.06-0.05-1.17s-0.16-0.18-0.38-0.19h-0.51h-0.26c-0.15,0-0.23-0.06-0.23-0.18
		s0.11-0.18,0.33-0.18c-0.02,0,0.03,0,0.15,0s0.31,0,0.56,0h1.84c0.1,0,0.26,0,0.46,0s0.39,0,0.56,0h0.64
		c0.27,0,0.41,0.07,0.41,0.21c0,0.1-0.29,0.16-0.87,0.18c-0.24,0-0.38,0.04-0.44,0.12c-0.05,0.08-0.08,0.31-0.08,0.7v9.66
		c0,0.17,0.06,0.28,0.19,0.33s0.43,0.09,0.91,0.13C218.47,93.74,218.57,93.8,218.57,93.91z"/>
	<path d="M236.12,88.31c0,1.65-0.54,3.06-1.61,4.21c-1.08,1.15-2.39,1.73-3.95,1.73c-1.66,0-3.05-0.58-4.19-1.75s-1.7-2.59-1.7-4.28
		c0-1.76,0.54-3.19,1.63-4.31c1.08-1.12,2.47-1.67,4.16-1.67c1.61,0,2.95,0.58,4.04,1.75S236.12,86.58,236.12,88.31z M233.71,88.38
		c0-1.98-0.4-3.54-1.2-4.68c-0.51-0.73-1.22-1.1-2.13-1.1c-1.25,0-2.15,0.68-2.72,2.04c-0.39,0.95-0.59,2.16-0.59,3.63
		c0,1.76,0.31,3.13,0.92,4.12c0.61,0.99,1.47,1.48,2.56,1.48C232.66,93.88,233.71,92.05,233.71,88.38z"/>
	<path d="M253.44,82.58c0,0.12-0.19,0.18-0.56,0.18c-0.05,0-0.17,0-0.36,0h-0.28c-0.15,0-0.24,0.03-0.27,0.1s-0.04,0.3-0.04,0.7V93
		c0,0.62-0.01,0.98-0.03,1.08s-0.09,0.15-0.23,0.15c-0.19,0-0.8-0.72-1.82-2.15c-0.12-0.19-0.3-0.45-0.56-0.77
		c-0.03-0.05-0.13-0.18-0.28-0.39c-0.85-1.13-2.4-3.26-4.64-6.39v8.13c0,0.64,0.09,0.97,0.27,1.01s0.51,0.05,0.99,0.05h0.1
		c0.21,0,0.31,0.06,0.31,0.17c0,0.13-0.19,0.19-0.56,0.19c-0.07,0-0.35-0.02-0.85-0.05c-0.26-0.02-0.49-0.03-0.69-0.03
		c-0.17,0-0.34,0.01-0.51,0.03c-0.33,0.03-0.68,0.05-1.05,0.05c-0.27,0-0.41-0.06-0.41-0.19c0-0.11,0.16-0.17,0.49-0.17h0.23
		l0.33-0.03c0.41-0.04,0.62-0.11,0.64-0.23c0.02-0.07,0.03-0.32,0.03-0.75v-7.1c0-1.29-0.08-2.06-0.23-2.32
		c-0.21-0.34-0.61-0.52-1.2-0.52c-0.43,0-0.64-0.07-0.64-0.22c0-0.11,0.11-0.17,0.33-0.17h0.1h1.41c0.07,0,0.18,0,0.33,0
		c0.17,0,0.32,0,0.46,0h0.95l6.05,8.33V83.6c0-0.43-0.02-0.67-0.05-0.74c-0.04-0.07-0.17-0.1-0.41-0.1c-0.22,0-0.4,0-0.54,0h-0.15
		c-0.32,0-0.49-0.06-0.49-0.19c0-0.08,0.08-0.13,0.24-0.14s0.74-0.02,1.73-0.02c0.94,0,1.49,0.01,1.64,0.02
		C253.36,82.44,253.44,82.49,253.44,82.58z"/>
</g>
<path d="M54.94,53.98V32.02l18.98,16.56C65.88,58.94,54.94,53.98,54.94,53.98z"/>
<path class="st0" d="M76.49,40.07c0,8.45-6.81,15.31-15.21,15.31s-15.21-6.86-15.21-15.31c0-8.46,6.81-15.31,15.21-15.31
	C69.68,24.76,76.49,31.61,76.49,40.07z"/>
<polyline class="st0" points="54.94,53.98 54.94,32.02 111.19,84.13 "/>
</svg>
